<svg xmlns="http://www.w3.org/2000/svg" width="100%" height="100%" viewBox="0 0 1200 320"><defs><linearGradient id="bg-grad" x1="0%" x2="100%" y1="0%" y2="100%"><stop offset="0%" stop-color="#0f172a"/><stop offset="50%" stop-color="#1e1b4b"/><stop offset="100%" stop-color="#0f172a"/></linearGradient><linearGradient id="primary-grad" x1="0%" x2="100%" y1="0%" y2="0%"><stop offset="0%" stop-color="#6366f1"/><stop offset="50%" stop-color="#8b5cf6"/><stop offset="100%" stop-color="#ec4899"/></linearGradient><linearGradient id="cyan-grad" x1="0%" x2="100%" y1="0%" y2="100%"><stop offset="0%" stop-color="#06b6d4"/><stop offset="100%" stop-color="#3b82f6"/></linearGradient><linearGradient id="card-grad" x1="0%" x2="100%" y1="0%" y2="100%"><stop offset="0%" stop-color="#1e293b" stop-opacity=".8"/><stop offset="100%" stop-color="#0f172a" stop-opacity=".9"/></linearGradient><filter id="glow" width="140%" height="140%" x="-20%" y="-20%"><feGaussianBlur result="blur" stdDeviation="8"/><feComposite in="SourceGraphic" in2="blur" operator="over"/></filter><filter id="subtle-glow" width="140%" height="140%" x="-20%" y="-20%"><feGaussianBlur result="blur" stdDeviation="4"/><feComposite in="SourceGraphic" in2="blur" operator="over"/></filter></defs><style>@keyframes pulse-line{0%{stroke-dashoffset:400}}@keyframes float-node{0%{transform:translateY(0)}50%{transform:translateY(-8px)}}@keyframes pulse-glow{0%{opacity:.4}50%{opacity:.8}}.badge-text,.node-text,.subtitle,.title{font-family:system-ui,-apple-system,&apos;Segoe UI&apos;,Roboto,Helvetica,Arial,sans-serif}.title{font-weight:800;font-size:46px;fill:#fff}.subtitle{font-weight:500;font-size:20px;fill:#cbd5e1}.badge-text,.node-text{font-weight:600;font-size:13px;fill:#38bdf8}.node-text{font-size:12px;fill:#e2e8f0}.pulse-path{stroke-dasharray:20,10,5,10;animation:pulse-line 12s linear infinite}.node-1{animation:float-node 4s ease-in-out infinite}.node-2{animation:float-node 5s ease-in-out infinite 1s}.glow-circle{animation:pulse-glow 3s ease-in-out infinite alternate}</style><rect width="1200" height="320" fill="url(#bg-grad)" rx="16"/><g opacity=".1"><path stroke="#94a3b8" stroke-width="1" d="M 0,40 L 1200,40 M 0,80 L 1200,80 M 0,120 L 1200,120 M 0,160 L 1200,160 M 0,200 L 1200,200 M 0,240 L 1200,240 M 0,280 L 1200,280"/><path stroke="#94a3b8" stroke-width="1" d="M 100,0 L 100,320 M 200,0 L 200,320 M 300,0 L 300,320 M 400,0 L 400,320 M 500,0 L 500,320 M 600,0 L 600,320 M 700,0 L 700,320 M 800,0 L 800,320 M 900,0 L 900,320 M 1000,0 L 1000,320 M 1100,0 L 1100,320"/></g><circle cx="150" cy="100" r="120" fill="#6366f1" class="glow-circle" filter="url(#glow)" opacity=".15"/><circle cx="1050" cy="220" r="140" fill="#ec4899" class="glow-circle" filter="url(#glow)" opacity=".12"/><g class="node-1"><path fill="none" stroke="url(#cyan-grad)" stroke-width="2" d="M 60,220 L 120,180 L 180,240" class="pulse-path" opacity=".6"/><rect width="50" height="30" x="35" y="205" fill="url(#card-grad)" stroke="#06b6d4" stroke-width="1.5" filter="url(#subtle-glow)" rx="6"/><text x="60" y="224" class="node-text" text-anchor="middle">v1.0</text><rect width="50" height="30" x="95" y="165" fill="url(#card-grad)" stroke="#8b5cf6" stroke-width="1.5" filter="url(#subtle-glow)" rx="6"/><text x="120" y="184" class="node-text" text-anchor="middle">main</text><rect width="50" height="30" x="155" y="225" fill="url(#card-grad)" stroke="#ec4899" stroke-width="1.5" filter="url(#subtle-glow)" rx="6"/><text x="180" y="244" class="node-text" text-anchor="middle">v1.1</text></g><g class="node-2"><path fill="none" stroke="url(#primary-grad)" stroke-width="2" d="M 980,100 L 1050,140 L 1120,90 M 1050,140 L 1080,210" class="pulse-path" opacity=".7"/><circle cx="980" cy="100" r="16" fill="#1e293b" stroke="#6366f1" stroke-width="2" filter="url(#subtle-glow)"/><text x="980" y="104" class="node-text" font-size="10" text-anchor="middle">RAW</text><circle cx="1050" cy="140" r="18" fill="#1e293b" stroke="#a855f7" stroke-width="2" filter="url(#subtle-glow)"/><text x="1050" y="144" class="node-text" font-size="10" text-anchor="middle">CLEAN</text><circle cx="1120" cy="90" r="16" fill="#1e293b" stroke="#ec4899" stroke-width="2" filter="url(#subtle-glow)"/><text x="1120" y="94" class="node-text" font-size="10" text-anchor="middle">TRAIN</text><circle cx="1080" cy="210" r="16" fill="#1e293b" stroke="#06b6d4" stroke-width="2" filter="url(#subtle-glow)"/><text x="1080" y="214" class="node-text" font-size="10" text-anchor="middle">TEST</text></g><g transform="translate(600, 155)"><g transform="translate(-160, -95)"><rect width="320" height="28" x="0" y="0" fill="#1e293b" stroke="#38bdf8" stroke-width="1.5" rx="14"/><text x="160" y="18" class="badge-text" text-anchor="middle">⚡ CURATED DATASET VERSIONING ECOSYSTEM ⚡</text></g><text x="0" y="-15" class="title" text-anchor="middle">Awesome Dataset Versioning Platform</text><rect width="440" height="4" x="-220" y="5" fill="url(#primary-grad)" rx="2"/><text x="0" y="42" class="subtitle" text-anchor="middle">Git-for-Data • ML Artifact Management • Data Lake Versioning • Reproducibility</text></g></svg>